<?xml version="1.0" standalone="no"?><!DOCTYPE svg PUBLIC "-//W3C//DTD SVG 1.1//EN" "http://www.w3.org/Graphics/SVG/1.1/DTD/svg11.dtd"><svg t="1657617667475" class="icon" viewBox="0 0 1024 1024" version="1.1" xmlns="http://www.w3.org/2000/svg" p-id="1155" xmlns:xlink="http://www.w3.org/1999/xlink" width="200" height="200"><defs><style type="text/css">@font-face { font-family: feedback-iconfont; src: url("//at.alicdn.com/t/font_1031158_u69w8yhxdu.woff2?t=1630033759944") format("woff2"), url("//at.alicdn.com/t/font_1031158_u69w8yhxdu.woff?t=1630033759944") format("woff"), url("//at.alicdn.com/t/font_1031158_u69w8yhxdu.ttf?t=1630033759944") format("truetype"); }
</style></defs><path d="M839.723359 507.30275201m-28.90614 0a28.90614 28.90614 0 1 0 57.81228002 0 28.90614 28.90614 0 1 0-57.81228002 0Z" p-id="1156"></path><path d="M839.723359 610.64220199m-28.90614 2e-8a28.90614 28.90614 0 1 0 57.81228002 0 28.90614 28.90614 0 1 0-57.81228002 0Z" p-id="1157"></path><path d="M839.723359 713.25899801m-28.90614-2e-8a28.90614 28.90614 0 1 0 57.81228002 0 28.90614 28.90614 0 1 0-57.81228002 0Z" p-id="1158"></path><path d="M834.664785 772.516584c-15.175723 0-27.460833 12.285109-27.46083301 27.460833 0 39.023289-31.79675399 70.82004199-70.82004198 70.82004199H294.11997198c-39.023289 0-70.82004199-31.79675399-70.82004301-70.82004199V419.86168c0-39.023289 31.79675399-70.82004199 70.82004304-70.820043H737.106563c39.023289 0 70.82004199 31.79675399 70.82004301 70.820043 0 15.175723 12.285109 27.460833 27.460832 27.46083201s27.460833-12.285109 27.46083299-27.46083201c0-68.65208199-55.644319-125.01905401-125.019054-125.019055h-13.00776298v-123.57374699c0-62.87085399-50.58574501-113.45659801-113.45659902-113.45659903h-188.61256099c-62.87085399 0-113.45659801 50.58574501-113.45659901 113.45659903v123.57374699H296.287932c-68.65208199 0-125.01905401 55.644319-125.01905399 125.019055v380.115737C171.26887799 868.62949899 226.913197 924.996471 296.287932 924.996471h13.730417v28.90614002c0 15.175723 12.285109 27.460833 27.460832 27.46083297s27.460833-12.285109 27.46083301-27.46083297v-29.62879303h306.405081V953.90261099c0 15.175723 12.285109 27.460833 27.46083299 27.460833s27.460833-12.285109 27.460833-27.460833v-29.62879298h13.730416c68.65208199 0 125.01905401-55.644319 125.01905401-125.01905401-3.613267-14.45307001-15.898377-26.73817898-30.35144601-26.73818zM362.0494 171.26887799c0-32.51940699 26.73817898-59.25758602 59.257587-59.25758699h188.612561c32.51940699 0 59.25758602 26.73817898 59.257587 59.25758701v123.57374699H362.0494v-123.57374701z" p-id="1159"></path><path d="M463.22088899 763.84474198c13.007763 0 23.124912-10.117149 23.12491201-23.12491098V483.455187c0-9.394495-5.781228-17.343684-14.45307-20.956951s-18.788991-1.445307-25.292872 5.05857401L364.94001401 549.939308c-8.67184199 8.67184199-8.67184199 23.847565-3e-8 32.519408 8.67184199 8.67184199 23.847565 8.67184199 32.51940702 0l42.63655601-42.636557v201.62032498c0.72265301 11.56245601 10.83980201 22.40225799 23.12491198 22.40225803zM567.282992 461.05292899c-13.007763 0-23.124912 10.117149-23.124912 23.12491201v256.54199c0 9.394495 5.781228 17.343684 14.45307001 20.95695101 2.89061399 1.445307 5.781228 1.445307 8.67184199 1.44530701 5.781228 0 11.56245601-2.16796 16.62103099-6.50388201l82.38249802-82.38249801c8.67184199-8.67184199 8.67184199-23.847565 0-32.51940701-8.67184199-8.67184199-23.847565-8.67184199-32.519407 0l-42.63655602 42.636556V483.455187c-0.72265301-12.285109-10.83980201-22.40225799-23.84756599-22.40225801z" p-id="1160"></path></svg>