<?xml version="1.0" standalone="no"?><!DOCTYPE svg PUBLIC "-//W3C//DTD SVG 1.1//EN" "http://www.w3.org/Graphics/SVG/1.1/DTD/svg11.dtd"><svg t="1657247916745" class="icon" viewBox="0 0 1024 1024" version="1.1" xmlns="http://www.w3.org/2000/svg" p-id="1700" xmlns:xlink="http://www.w3.org/1999/xlink" width="200" height="200"><defs><style type="text/css">@font-face { font-family: feedback-iconfont; src: url("//at.alicdn.com/t/font_1031158_u69w8yhxdu.woff2?t=1630033759944") format("woff2"), url("//at.alicdn.com/t/font_1031158_u69w8yhxdu.woff?t=1630033759944") format("woff"), url("//at.alicdn.com/t/font_1031158_u69w8yhxdu.ttf?t=1630033759944") format("truetype"); }
</style></defs><path d="M389.22895356 642.67137142a23.70097427 23.70097427 0 0 0-31.60129857 35.07744145l18.96077886 17.22270812H229.48438724a23.70097427 23.70097427 0 1 0-1e-8 47.40194852h151.21221543l-24.17499319 24.33300018a23.70097427 23.70097427 0 0 0 16.7486885 40.4496621 24.17499388 24.17499388 0 0 0 16.74868781-6.95228577l64.30864335-64.46664965a23.22695467 23.22695467 0 0 0 6.95228577-17.22270811A23.54296795 23.54296795 0 0 0 453.5375969 701.60779344z" p-id="1701"></path><path d="M759.91219023 332.0306023h-118.82088394V282.2585564a72.84099425 72.84099425 0 0 0-72.68298793-72.84099354h-115.34474108a72.99900055 72.99900055 0 0 0-72.84099355 72.84099354v49.7720459H264.08780977A67.94279253 67.94279253 0 0 0 195.98701092 399.81538852v212.8347488a23.70097427 23.70097427 0 0 0 47.40194785 0v-47.40194855a66.83674702 66.83674702 0 0 0 21.1728706 3.63414919h494.56032864a66.83674702 66.83674702 0 0 0 21.48888321-4.10816879v182.02348176a20.38283768 20.38283768 0 0 1-20.38283836 20.38283769H521.00637051a23.70097427 23.70097427 0 0 0 0 47.40194852h238.90581972A67.94279253 67.94279253 0 0 0 828.01298908 746.79765093v-347.61428833a67.94279253 67.94279253 0 0 0-68.10079885-67.1527603z m-331.81363904-49.7720459a25.4390457 25.4390457 0 0 1 25.43904571-25.43904502h115.34474107a25.4390457 25.4390457 0 0 1 25.28103939 25.43904502v49.7720459H427.62453159z m331.81363904 238.74781411H264.87784199A21.1728706 21.1728706 0 0 1 243.38895878 499.83349991V401.39545365a21.1728706 21.1728706 0 0 1 21.17287059-21.17286992h494.56032864A21.1728706 21.1728706 0 0 1 780.61104122 401.39545365v99.22807849a21.1728706 21.1728706 0 0 1-21.48888321 20.38283837z" p-id="1702"></path></svg>