<?xml version="1.0" standalone="no"?><!DOCTYPE svg PUBLIC "-//W3C//DTD SVG 1.1//EN" "http://www.w3.org/Graphics/SVG/1.1/DTD/svg11.dtd"><svg t="1657247908161" class="icon" viewBox="0 0 1024 1024" version="1.1" xmlns="http://www.w3.org/2000/svg" p-id="1411" xmlns:xlink="http://www.w3.org/1999/xlink" width="200" height="200"><defs><style type="text/css">@font-face { font-family: feedback-iconfont; src: url("//at.alicdn.com/t/font_1031158_u69w8yhxdu.woff2?t=1630033759944") format("woff2"), url("//at.alicdn.com/t/font_1031158_u69w8yhxdu.woff?t=1630033759944") format("woff"), url("//at.alicdn.com/t/font_1031158_u69w8yhxdu.ttf?t=1630033759944") format("truetype"); }
</style></defs><path d="M490.58171916 248.63321321c7.46754655 0 13.57735717 6.10981063 13.57735716 13.57735719v54.30942871h271.54714427v391.02788841h-271.54714426v54.3094287c0 7.46754655-6.10981063 13.57735717-13.57735717 13.57735719h-228.09960158c-7.46754655 0-13.57735717-6.10981063-13.57735717-13.57735719v-499.64674582c0-7.46754655 6.10981063-13.57735717 13.57735717-13.57735718h228.09960157m0-40.73207155h-228.09960157c-30.00595945 0-54.30942872 24.30346927-54.30942872 54.30942873v499.64674583c0 30.00595945 24.30346927 54.30942872 54.30942872 54.30942871h228.09960157c30.00595945 0 54.30942872-24.30346927 54.30942871-54.30942871v-13.57735717h271.54714427v-472.49203148h-271.54714427v-13.57735718c0-30.00595945-24.30346927-54.30942872-54.30942871-54.30942873z" p-id="1412"></path><path d="M544.89114787 316.51999912h-40.73207155v391.0278884h40.73207155v-391.0278884z" p-id="1413"></path><path d="M464.78474003 304.97924548h-176.50564402v40.73207221h176.50564402v-40.73207221z" p-id="1414"></path><path d="M410.47531132 379.6547103h-122.19621531v40.73207155h122.19621531v-40.73207155z" p-id="1415"></path><path d="M464.78474003 454.33017512h-176.50564402v40.73207156h176.50564402v-40.73207156z" p-id="1416"></path><path d="M410.47531132 529.00563997h-122.19621531v40.73207151h122.19621531v-40.73207152z" p-id="1417"></path><path d="M464.78474003 603.68110479h-176.50564402v40.73207153h176.50564402v-40.73207153z" p-id="1418"></path><path d="M410.47531132 678.35656961h-122.19621531v40.73207154h122.19621531v-40.73207154z" p-id="1419"></path><path d="M695.59981275 381.01244622h-122.19621461v40.73207155h122.19621461v-40.73207154z" p-id="1420"></path><path d="M749.90924216 455.68791104h-176.50564402v40.73207155h176.50564402v-40.73207155z" p-id="1421"></path><path d="M695.59981275 530.36337588h-122.19621461v40.73207154h122.19621461v-40.73207154z" p-id="1422"></path><path d="M749.90924216 605.0388407h-176.50564402v40.73207154h176.50564402v-40.73207153z" p-id="1423"></path></svg>