<?xml version="1.0" standalone="no"?><!DOCTYPE svg PUBLIC "-//W3C//DTD SVG 1.1//EN" "http://www.w3.org/Graphics/SVG/1.1/DTD/svg11.dtd"><svg t="1657617405163" class="icon" viewBox="0 0 1024 1024" version="1.1" xmlns="http://www.w3.org/2000/svg" p-id="1268" xmlns:xlink="http://www.w3.org/1999/xlink" width="200" height="200"><defs><style type="text/css">@font-face { font-family: feedback-iconfont; src: url("//at.alicdn.com/t/font_1031158_u69w8yhxdu.woff2?t=1630033759944") format("woff2"), url("//at.alicdn.com/t/font_1031158_u69w8yhxdu.woff?t=1630033759944") format("woff"), url("//at.alicdn.com/t/font_1031158_u69w8yhxdu.ttf?t=1630033759944") format("truetype"); }
</style></defs><path d="M111.99968748 711.9996875h799.92000002c0.24 0 0.080625-559.99968749 0.08062499-559.99968751H112.0803125c-0.24 0-0.080625 559.99968749-0.08062499 559.99968751zM32 151.99999999c0-44.2003125 35.5996875-79.9996875 80.0803125-79.99968749H911.91875001A79.9996875 79.9996875 0 0 1 992 151.99999999v559.99968751c0 44.24062499-35.5996875 80.000625-80.0803125 80.000625H112.08124999A79.9996875 79.9996875 0 0 1 32 711.9996875V151.99999999z" p-id="1269"></path><path d="M711.92 552.0003125c0.07968751-0.1603125-399.84000001 0-399.84 0-0.07968751 0.15937499 399.84000001 0 399.84 0z m-439.92 0C272 529.9203125 290.23999999 512 312.08 512h399.84a39.96 39.96 0 1 1 0 79.9996875H312.08A39.96 39.96 0 0 1 272 552.0003125z m279.9196875-240c0.080625-0.1603125-239.83968749 0-239.8396875 0-0.07968751 0.15937499 239.84062499 0 239.840625 0z m-279.9196875 0C272 289.92031249 290.23999999 272 312.08 272h239.840625a39.96 39.96 0 1 1 0 79.9996875h-239.840625A39.96 39.96 0 0 1 272 312.0003125zM471.9996875 711.9996875h80.000625v200.00062502h-80.000625z" p-id="1270"></path><path d="M312.0003125 872.00000001h399.999375v79.99968749H312.0003125V872.00000001z" p-id="1271"></path></svg>