<?xml version="1.0" standalone="no"?><!DOCTYPE svg PUBLIC "-//W3C//DTD SVG 1.1//EN" "http://www.w3.org/Graphics/SVG/1.1/DTD/svg11.dtd"><svg t="1657247912264" class="icon" viewBox="0 0 1024 1024" version="1.1" xmlns="http://www.w3.org/2000/svg" p-id="1561" xmlns:xlink="http://www.w3.org/1999/xlink" width="200" height="200"><defs><style type="text/css">@font-face { font-family: feedback-iconfont; src: url("//at.alicdn.com/t/font_1031158_u69w8yhxdu.woff2?t=1630033759944") format("woff2"), url("//at.alicdn.com/t/font_1031158_u69w8yhxdu.woff?t=1630033759944") format("woff"), url("//at.alicdn.com/t/font_1031158_u69w8yhxdu.ttf?t=1630033759944") format("truetype"); }
</style></defs><path d="M492.16467771 206.4796294a95.22834963 95.22834963 0 0 1 95.22834904 95.22834962L587.36169122 341.37862361h134.91466229A95.22834963 95.22834963 0 0 1 817.5203706 436.60697325v285.68504773A95.22834963 95.22834963 0 0 1 722.29202097 817.5203706H436.60697325a95.22834963 95.22834963 0 0 1-95.22834964-95.22834962V555.63457627H301.70797903A95.22834963 95.22834963 0 0 1 206.4796294 460.43756216V301.70797903A95.22834963 95.22834963 0 0 1 301.70797903 206.4796294h190.45669869z m230.12734326 182.52883651l-134.9146617-0.01566748v71.42909567a95.22834963 95.22834963 0 0 1-95.21268155 95.22834964l-103.17187929-0.01566747v166.6574447a47.62984228 47.62984228 0 0 0 44.80965416 47.53583629l2.82018814 0.07833852h285.66938024a47.62984228 47.62984228 0 0 0 47.53583629-44.80965416l0.07833852-2.80452065V436.60697325a47.62984228 47.62984228 0 0 0-44.80965416-47.52016823l-2.80452064-0.09400659z m-71.20974756 214.25595264a15.66771115 15.66771115 0 0 1 15.66771117 15.66771115l-0.01566747 31.93079561h31.96213113a15.66771115 15.66771115 0 0 1 15.66771115 15.66771117v0.42302816a15.66771115 15.66771115 0 0 1-15.66771115 15.66771174l-31.96213113-0.01566807v31.96213113a15.66771115 15.66771115 0 0 1-15.66771175 15.66771117h-0.39169264a15.66771115 15.66771115 0 0 1-15.66771115-15.66771117l-0.01566748-31.96213113h-31.93079618a15.66771115 15.66771115 0 0 1-15.66771116-15.66771115v-0.39169263a15.66771115 15.66771115 0 0 1 15.66771116-15.66771116l31.93079618-0.01566806v-31.93079561a15.66771115 15.66771115 0 0 1 15.66771116-15.66771116h0.42302816zM492.16467771 254.09380421H301.70797903a47.62984228 47.62984228 0 0 0-47.53583629 44.80965417l-0.07833853 2.80452065v158.71391507a47.62984228 47.62984228 0 0 0 44.80965417 47.53583629l2.80452065 0.07833852 39.67064459-0.01566746v-71.4134282a95.22834963 95.22834963 0 0 1 95.22834963-95.22834964h103.15621121V301.70797903a47.62984228 47.62984228 0 0 0-44.80965417-47.53583629l-2.78885257-0.07833853z m47.59850676 134.89899422h-103.15621121a47.62984228 47.62984228 0 0 0-47.52016823 44.80965417l-0.0940066 2.82018812v71.39776072h103.17187929a47.62984228 47.62984228 0 0 0 47.53583569-44.80965474l0.07833851-2.7888526-0.01566745-71.42909567z" p-id="1562"></path></svg>